<?xml version="1.0" standalone="no"?>
<!DOCTYPE svg PUBLIC "-//W3C//DTD SVG 20010904//EN"
 "http://www.w3.org/TR/2001/REC-SVG-20010904/DTD/svg10.dtd">
<svg version="1.0" xmlns="http://www.w3.org/2000/svg"
 width="700.000000pt" height="700.000000pt" viewBox="0 0 700.000000 700.000000"
 preserveAspectRatio="xMidYMid meet">
<metadata>
Created by potrace 1.11, written by Peter Selinger 2001-2013
</metadata>
<g transform="translate(0.000000,700.000000) scale(0.100000,-0.100000)"
fill="#000000" stroke="none">
<path d="M3388 6385 c-10 -13 -18 -26 -18 -29 0 -3 -38 -69 -84 -148 -46 -79
-92 -159 -103 -178 -11 -19 -54 -93 -95 -165 -41 -71 -80 -139 -86 -151 l-11
-20 405 -1 c222 0 407 3 410 8 2 5 -6 25 -19 46 -13 21 -35 58 -49 83 -14 25
-69 122 -123 215 -54 94 -109 190 -123 214 -25 45 -83 145 -86 148 0 0 -9 -9
-18 -22z"/>
<path d="M1360 5547 c0 -4 95 -360 145 -542 7 -27 23 -84 34 -126 11 -41 24
-85 28 -97 8 -19 39 9 298 268 159 159 286 292 283 295 -3 3 -18 8 -34 11 -16
3 -67 16 -114 29 -47 13 -139 38 -205 55 -66 17 -178 47 -250 66 -141 38 -185
48 -185 41z"/>
<path d="M5395 5540 c-16 -5 -64 -17 -105 -28 -41 -11 -120 -32 -175 -47 -269
-72 -362 -96 -382 -101 -12 -2 -34 -9 -48 -14 -25 -10 -16 -19 267 -302 225
-225 294 -288 296 -273 4 24 45 176 93 345 12 41 23 83 25 95 2 11 24 91 48
178 47 170 47 165 -19 147z"/>
<path d="M3145 5300 c-313 -47 -593 -163 -834 -348 -75 -58 -109 -86 -185
-157 -11 -11 -48 -52 -82 -90 -262 -302 -401 -621 -449 -1030 -6 -47 -6 -294
-1 -345 66 -632 439 -1171 1008 -1457 160 -80 393 -152 548 -168 36 -4 68 -9
72 -12 9 -5 332 -5 368 1 14 2 48 7 75 11 28 4 59 8 70 10 11 2 65 15 120 29
680 174 1202 728 1334 1416 5 30 13 71 17 90 13 73 12 414 -2 505 -51 327
-174 617 -367 865 -54 69 -133 156 -181 199 -16 14 -38 35 -50 46 -163 159
-492 334 -746 396 -91 22 -90 22 -195 40 -116 20 -383 19 -520 -1z"/>
<path d="M1205 3911 c-6 -5 -37 -23 -70 -41 -33 -18 -64 -36 -70 -40 -10 -8
-293 -172 -380 -220 -27 -16 -80 -46 -117 -67 l-67 -40 92 -53 c51 -30 106
-62 122 -70 28 -16 354 -203 458 -264 l47 -28 0 416 c0 229 -1 416 -3 416 -2
0 -7 -4 -12 -9z"/>
<path d="M5590 3511 c0 -226 2 -411 4 -411 3 0 315 180 511 295 50 29 114 66
142 81 29 16 53 31 53 34 0 3 -28 21 -63 41 -34 19 -152 87 -262 151 -110 63
-220 126 -245 140 -25 14 -66 38 -92 53 l-48 27 0 -411z"/>
<path d="M1547 2197 c-8 -34 -24 -96 -35 -137 -11 -41 -34 -127 -51 -190 -94
-351 -109 -410 -103 -410 4 0 57 13 117 30 192 53 640 172 652 174 7 1 15 4
17 7 3 3 -127 136 -288 296 l-293 291 -16 -61z"/>
<path d="M4942 1964 c-155 -157 -280 -289 -277 -293 2 -5 22 -12 42 -16 21 -5
43 -9 48 -11 6 -1 46 -12 90 -24 44 -13 145 -40 225 -61 80 -21 196 -52 259
-68 63 -17 116 -29 118 -27 2 2 -17 79 -43 172 -25 92 -47 175 -49 184 -2 8
-29 106 -59 217 -31 111 -56 205 -56 208 0 16 -40 -21 -298 -281z"/>
<path d="M3094 1320 l-102 -5 130 -225 c162 -279 181 -312 218 -380 17 -30 39
-66 49 -79 l18 -24 37 61 c20 33 36 62 36 65 0 4 19 37 90 157 58 99 240 420
240 424 0 7 -588 12 -716 6z"/>
</g>
</svg>
