<?xml version="1.0" encoding="utf-8"?>
<!-- Generator: Adobe Illustrator 22.1.0, SVG Export Plug-In . SVG Version: 6.00 Build 0)  -->
<svg version="1.1" id="Layer_1" xmlns="http://www.w3.org/2000/svg" xmlns:xlink="http://www.w3.org/1999/xlink" x="0px" y="0px"
	 viewBox="0 0 256 256" style="enable-background:new 0 0 256 256;" xml:space="preserve">
<style type="text/css">
	.st0{fill:#FFFFFF;}
</style>
<g>
	<path class="st0" d="M82.7,192.6c-27.4,0-50.5-19.1-55.1-45.8c-3.3-19.1,2.9-36.2,17.6-49.4c10.7-9.6,23-14.4,36.2-14.4
		c4.8,0,9.8,0.6,14.7,1.9c3.6-5.4,7.3-9.6,11.7-12.8c7.8-5.9,16.3-8.8,25.5-8.8c5.4,0,10.9,1.1,16.3,3.1
		c16.5,6.3,26.6,18.2,29.7,34.7c1.5-0.2,3.1-0.2,4.6-0.2c8,0,15.7,2.1,22.8,6.5c14.2,8.6,22.6,26.8,19.9,43.5
		c-1.9,12.3-6.9,21.8-14.9,29.3c-8,7.7-18,11.7-29.1,12.3L82.7,192.6z"/>
</g>
</svg>
