<?xml version="1.0" encoding="utf-8"?>
<!-- Generator: Adobe Illustrator 22.1.0, SVG Export Plug-In . SVG Version: 6.00 Build 0)  -->
<svg version="1.1" xmlns="http://www.w3.org/2000/svg" xmlns:xlink="http://www.w3.org/1999/xlink" x="0px" y="0px"
	 viewBox="0 0 1200 1200" style="enable-background:new 0 0 1200 1200;" xml:space="preserve">
<style type="text/css">
	.st0{fill:url(#SVGID_1_);}
	.st1{fill:#FCD404;}
	.st2{fill:none;}
	.st3{opacity:0.8;}
	.st4{fill:#FFFFFF;}
</style>
<g id="Layer_2">
	<radialGradient id="SVGID_1_" cx="600" cy="600" r="600" gradientUnits="userSpaceOnUse">
		<stop  offset="0" style="stop-color:#D9D9FB"/>
		<stop  offset="1" style="stop-color:#76A5FB"/>
	</radialGradient>
	<rect class="st0" width="1200" height="1200"/>
	<g>
		<circle class="st1" cx="603.5" cy="407.5" r="88.1"/>
		<polygon class="st1" points="603.5,266.6 623.5,301.5 603.5,301.5 583.4,301.5 		"/>
		<polygon class="st1" points="462.9,407.5 497.7,387.4 497.7,407.5 497.7,427.5 		"/>
		<polygon class="st1" points="504.3,308.1 543.1,318.4 529,332.6 514.8,346.7 		"/>
		<path class="st2" d="M497.7,407.5"/>
		<polygon class="st1" points="603.5,548 583.4,513.2 603.5,513.2 623.5,513.2 		"/>
		<polygon class="st1" points="504.1,506.6 514.4,467.9 528.7,482.1 542.9,496.2 		"/>
		<polygon class="st1" points="744,407.1 709.3,427.2 709.3,407.1 709.3,387.1 		"/>
		<polygon class="st1" points="702.7,506.6 663.9,496.2 678,482.1 692.2,467.9 		"/>
		<polygon class="st1" points="702.9,308.1 692.5,346.7 678.3,332.6 664.1,318.4 		"/>
	</g>
	<g class="st3">
		<path class="st4" d="M189.5,744.6c-18.4,0-33.9-12.8-37-30.8c-2.2-12.8,1.9-24.3,11.8-33.2c7.2-6.4,15.4-9.7,24.3-9.7
			c3.2,0,6.6,0.4,9.9,1.3c2.4-3.6,4.9-6.4,7.9-8.6c5.2-4,10.9-5.9,17.1-5.9c3.6,0,7.3,0.7,10.9,2.1c11.1,4.2,17.9,12.2,19.9,23.3
			c1-0.1,2.1-0.1,3.1-0.1c5.4,0,10.5,1.4,15.3,4.4c9.5,5.8,15.2,18,13.4,29.2c-1.3,8.3-4.6,14.6-10,19.7c-5.4,5.2-12.1,7.9-19.5,8.3
			L189.5,744.6z"/>
	</g>
	<g class="st3">
		<path class="st4" d="M956.7,511.3c-18.4,0-33.9-12.8-37-30.8c-2.2-12.8,1.9-24.3,11.8-33.2c7.2-6.4,15.4-9.7,24.3-9.7
			c3.2,0,6.6,0.4,9.9,1.3c2.4-3.6,4.9-6.4,7.9-8.6c5.2-4,10.9-5.9,17.1-5.9c3.6,0,7.3,0.7,10.9,2.1c11.1,4.2,17.9,12.2,19.9,23.3
			c1-0.1,2.1-0.1,3.1-0.1c5.4,0,10.5,1.4,15.3,4.4c9.5,5.8,15.2,18,13.4,29.2c-1.3,8.3-4.6,14.6-10,19.7c-5.4,5.2-12.1,7.9-19.5,8.3
			L956.7,511.3z"/>
	</g>
</g>
<g id="Layer_1">
	<g>
		<path d="M32.7,575l0.5,6.1c3.9-4.9,9.2-7,15.8-7c7,0,11.9,2.7,14.6,8.3c3.9-5.6,9.5-8.3,16.5-8.3c6.1,0,10.4,1.7,13.4,5.1
			c2.9,3.4,4.4,8.7,4.4,15.5v35H83v-34.7c0-3.2-0.7-5.3-1.9-6.8c-1.2-1.5-3.4-2.2-6.6-2.2c-4.4,0-7.5,2.2-9.2,6.3v37.7H50.7v-35
			c0-3.2-0.7-5.6-1.9-6.8c-1.2-1.5-3.4-2.2-6.3-2.2c-4.1,0-7.3,1.7-9,5.1v38.9H18.8V575H32.7z"/>
		<path d="M106.8,601.9c0-5.3,1-10.2,3.2-14.6c2.2-4.4,5.1-7.5,9-10c3.9-2.4,8.5-3.4,13.8-3.4c7.5,0,13.4,2.2,18.2,6.8
			c4.6,4.6,7.3,10.7,7.8,18.5v3.6c0,8.5-2.4,15.3-7,20.4c-4.6,5.1-10.9,7.5-19,7.5s-14.3-2.4-19-7.5c-4.6-5.1-7-11.9-7-20.7
			C106.8,602.7,106.8,601.9,106.8,601.9z M121.4,602.9c0,5.1,1,9.2,2.9,11.9s4.9,4.1,8.5,4.1c3.6,0,6.3-1.5,8.3-4.1s2.9-7,2.9-13.1
			c0-5.1-1-9-2.9-11.9c-1.9-2.9-4.9-4.1-8.5-4.1s-6.3,1.5-8.3,4.1C122.3,592.7,121.4,597.1,121.4,602.9z"/>
		<path d="M165.6,601.9c0-5.3,1-10.2,3.2-14.6c2.2-4.4,5.1-7.5,9-10c3.9-2.4,8.5-3.4,13.8-3.4c7.5,0,13.4,2.2,18.2,6.8
			c4.6,4.6,7.3,10.7,7.8,18.5v3.6c0,8.5-2.4,15.3-7,20.4c-4.6,5.1-10.9,7.5-19,7.5c-8,0-14.3-2.4-19-7.5c-4.9-5.1-7-12.1-7-20.9
			V601.9z M180.2,602.9c0,5.1,1,9.2,2.9,11.9c1.9,2.7,4.9,4.1,8.5,4.1c3.6,0,6.3-1.5,8.3-4.1s2.9-7,2.9-13.1c0-5.1-1-9-2.9-11.9
			c-1.9-2.9-4.9-4.1-8.5-4.1s-6.3,1.5-8.3,4.1C181.1,592.7,180.2,597.1,180.2,602.9z"/>
		<path d="M242.1,629.9h-14.8V575h14.8V629.9z"/>
		<path d="M301.9,610l7.3-35h14.1l-14.1,54.9h-12.4l-10.4-34.5l-10.4,34.5h-12.1L249.6,575h14.1l7,35l10-35h10.7L301.9,610z"/>
		<path d="M355.8,630.9c-8,0-14.6-2.4-19.7-7.5c-5.1-4.9-7.5-11.4-7.5-19.7v-1.5c0-5.6,1-10.4,3.2-14.8c2.2-4.4,5.1-7.8,9-10
			c3.9-2.4,8.3-3.6,13.4-3.6c7.5,0,13.4,2.4,17.7,7c4.4,4.9,6.6,11.4,6.6,20.2v6.1h-35c0.5,3.6,1.9,6.6,4.4,8.7
			c2.4,2.2,5.3,3.2,9,3.2c5.6,0,10-1.9,13.4-6.1l7.3,8c-2.2,3.2-5.1,5.6-9,7.3C364.6,629.9,360.4,630.9,355.8,630.9z M354.1,585.7
			c-2.9,0-5.3,1-7,2.9c-1.7,1.9-2.9,4.9-3.4,8.5h20.4v-1.2c0-3.2-1-5.8-2.7-7.5S357.3,585.7,354.1,585.7z"/>
		<path d="M412.2,630.9c-8,0-14.6-2.4-19.7-7.5c-5.1-4.9-7.5-11.4-7.5-19.7v-1.5c0-5.6,1-10.4,3.2-14.8c2.2-4.4,5.1-7.8,9-10
			c3.9-2.4,8.3-3.6,13.4-3.6c7.5,0,13.4,2.4,17.7,7c4.4,4.9,6.6,11.4,6.6,20.2v6.1h-35c0.5,3.6,1.9,6.6,4.4,8.7
			c2.4,2.2,5.3,3.2,9,3.2c5.6,0,10-1.9,13.4-6.1l7.3,8c-2.2,3.2-5.1,5.6-9,7.3C420.9,629.9,416.8,630.9,412.2,630.9z M410.5,585.7
			c-2.9,0-5.3,1-7,2.9c-1.7,1.9-2.9,4.9-3.4,8.5h20.4v-1.2c0-3.2-1-5.8-2.7-7.5C416.1,586.6,413.6,585.7,410.5,585.7z"/>
		<path d="M473.9,588.6c-1.9-0.2-3.6-0.5-5.3-0.5c-5.6,0-9.2,1.9-10.9,5.6v36H443V575h13.8l0.5,6.6c2.9-5.1,7-7.5,12.1-7.5
			c1.7,0,3.2,0.2,4.6,0.7L473.9,588.6z"/>
		<path d="M510.8,614.6c0-1.7-1-3.2-2.7-4.1c-1.7-1-4.6-1.9-8.5-2.7c-13.1-2.7-19.7-8.3-19.7-16.8c0-4.9,1.9-9,6.1-12.1
			s9.2-4.9,15.8-4.9c7,0,12.6,1.7,16.8,4.9c4.1,3.4,6.3,7.5,6.3,12.9h-14.6c0-2.2-0.7-3.9-1.9-5.1c-1.5-1.5-3.4-1.9-6.3-1.9
			c-2.4,0-4.4,0.5-5.8,1.7c-1.5,1.2-1.9,2.4-1.9,4.4c0,1.7,0.7,2.9,2.4,3.9c1.5,1,4.1,1.9,7.8,2.7c3.6,0.7,6.8,1.5,9.2,2.4
			c7.8,2.9,11.7,7.8,11.7,14.8c0,5.1-2.2,9-6.6,12.1c-4.4,3.2-10,4.6-16.8,4.6c-4.6,0-8.7-0.7-12.1-2.4c-3.6-1.7-6.3-3.9-8.5-6.8
			c-1.9-2.9-3.2-5.8-3.2-9.2h13.8c0.2,2.7,1.2,4.6,2.9,6.1s4.1,2.2,7.3,2.2c2.9,0,4.9-0.5,6.3-1.7
			C510.1,617.7,510.8,616.3,510.8,614.6z"/>
		<path d="M558.9,625.5l19.7-50.5h2.9l-21.4,54.9h-2.7L536.1,575h2.9L558.9,625.5z"/>
		<path d="M587.6,601.2c0-5.3,1-10,2.9-14.1c1.9-4.1,4.9-7.5,8.5-9.7c3.6-2.4,7.8-3.4,12.4-3.4s8.7,1.2,12.4,3.4
			c3.6,2.2,6.6,5.6,8.5,9.7s3.2,8.7,3.2,14.1v2.4c0,5.3-1,10-2.9,14.1s-4.9,7.5-8.5,9.7c-3.6,2.4-7.8,3.4-12.4,3.4
			s-8.7-1.2-12.4-3.4c-3.6-2.2-6.6-5.6-8.5-9.7s-3.2-8.7-3.2-14.1L587.6,601.2L587.6,601.2z M590.3,603.4c0,4.6,1,8.7,2.7,12.6
			c1.7,3.9,4.4,6.8,7.5,9c3.2,2.2,7,3.2,11.2,3.2c6.3,0,11.4-2.4,15.3-7c3.9-4.6,5.8-10.7,5.8-18.2v-1.7c0-4.6-1-8.7-2.7-12.4
			c-1.9-3.9-4.4-6.8-7.5-9c-3.2-2.2-6.8-3.2-10.9-3.2c-6.3,0-11.4,2.4-15.3,7c-3.9,4.9-5.8,10.7-5.8,18v1.7H590.3z"/>
		<path d="M644.7,601.2c0-5.3,1-10,2.9-14.1c1.9-4.1,4.9-7.5,8.5-9.7c3.6-2.4,7.8-3.4,12.4-3.4s8.7,1.2,12.4,3.4
			c3.6,2.2,6.6,5.6,8.5,9.7c1.9,4.1,3.2,8.7,3.2,14.1v2.4c0,5.3-1,10-2.9,14.1c-1.9,4.1-4.9,7.5-8.5,9.7c-3.6,2.4-7.8,3.4-12.4,3.4
			c-4.6,0-8.7-1.2-12.4-3.4c-3.6-2.2-6.6-5.6-8.5-9.7s-3.2-8.7-3.2-14.1V601.2z M647.4,603.4c0,4.6,1,8.7,2.7,12.6
			c1.7,3.9,4.4,6.8,7.5,9c3.2,2.2,7,3.2,11.2,3.2c6.3,0,11.4-2.4,15.3-7c3.9-4.6,5.8-10.7,5.8-18.2v-1.7c0-4.6-1-8.7-2.7-12.4
			c-1.9-3.9-4.4-6.8-7.5-9c-3.2-2.2-6.8-3.2-10.9-3.2c-6.3,0-11.4,2.4-15.3,7c-3.9,4.9-5.8,10.7-5.8,18v1.7H647.4z"/>
		<path d="M730.5,576.9l-3.6-0.2c-4.6,0-8.5,1.5-11.7,4.6c-3.2,2.9-5.1,7.3-6.3,12.6v36h-2.7V575h2.7v11.4c1.5-3.9,3.6-6.8,6.8-9
			c2.9-2.2,6.8-3.4,11.2-3.4c1.7,0,2.9,0.2,3.9,0.5L730.5,576.9z"/>
		<path d="M774.9,616.3c0-6.6-5.6-11.2-17-13.6c-6.8-1.5-11.7-3.4-14.3-5.6c-2.7-2.2-4.1-5.3-4.1-9.5s1.7-7.3,5.1-10
			c3.4-2.7,7.8-3.9,13.4-3.9c5.8,0,10.7,1.5,14.3,4.1c3.6,2.9,5.3,6.6,5.3,11.4h-2.7c0-3.6-1.5-6.8-4.6-9.2
			c-3.2-2.4-7.3-3.6-12.1-3.6s-8.5,1-11.4,3.2c-2.9,2.2-4.1,4.6-4.1,7.8c0,2.4,0.5,4.4,1.5,5.8c1,1.5,2.7,2.7,5.1,3.9
			c2.4,1.2,5.8,2.2,10.4,3.2s8,2.2,10.7,3.6s4.6,3.2,5.8,5.1c1.2,1.9,1.7,4.4,1.7,7c0,4.4-1.7,7.8-5.3,10.4
			c-3.6,2.7-8.3,3.9-13.8,3.9c-6.1,0-11.2-1.5-14.8-4.1c-3.9-2.7-5.6-6.3-5.6-10.7h2.7c0.2,3.9,1.9,6.8,5.1,9
			c3.2,2.2,7.3,3.2,12.6,3.2c4.9,0,9-1.2,11.9-3.4C773.2,622.4,774.9,619.7,774.9,616.3z"/>
		<path d="M834.7,602.9c0,8.5-1.9,15.3-5.6,20.4c-3.6,5.1-8.7,7.5-15.1,7.5c-4.1,0-7.8-0.7-11.2-2.4c-3.2-1.7-5.8-4.1-7.5-7V651
			h-2.7v-76h2.7v9.7c1.9-3.4,4.4-6.1,7.8-8c3.2-1.9,6.8-2.7,10.9-2.7c6.3,0,11.4,2.4,15.3,7.3c3.6,4.9,5.6,11.9,5.6,20.7v1H834.7z
			 M831.8,601.7c0-7.8-1.5-14.1-4.6-18.5c-3.2-4.4-7.5-6.6-13.1-6.6c-4.6,0-8.5,1.2-11.7,3.6s-5.6,5.8-7,10.2v25.8
			c1.5,3.9,3.6,6.8,7,8.7c3.2,2.2,7.3,3.2,11.9,3.2c5.6,0,10-2.2,13.1-6.8C830.3,617,831.8,610.4,831.8,601.7z"/>
		<path d="M869.4,630.9c-4.4,0-8.5-1.2-12.1-3.6s-6.6-5.6-8.7-9.7c-2.2-4.1-3.2-8.7-3.2-13.8v-2.4c0-5.1,1-9.7,3.2-13.8
			c1.9-4.1,4.9-7.5,8.3-10c3.6-2.4,7.5-3.6,11.7-3.6c6.1,0,11.2,2.2,15.1,6.6c3.9,4.4,5.8,10.2,5.8,17.3v2.9h-41.3v3.2
			c0,4.4,1,8.5,2.9,12.4c1.9,3.9,4.4,6.8,7.8,9c3.4,2.2,6.8,3.2,10.7,3.2c3.6,0,6.8-0.7,9.5-1.9c2.7-1.2,4.9-3.2,6.8-5.6l1.9,1.5
			C883.5,627.9,877.5,630.9,869.4,630.9z M868.5,576.7c-5.3,0-10,1.9-13.6,6.1c-3.6,3.9-5.8,9-6.6,15.3h38.4v-0.7
			c0-3.6-0.7-7.3-2.4-10.4c-1.5-3.2-3.6-5.6-6.6-7.5C874.8,577.4,871.9,576.7,868.5,576.7z"/>
		<path d="M905.4,629.9h-2.7v-78h2.7V629.9z"/>
		<path d="M926.8,629.9h-2.7v-78h2.7V629.9z"/>
		<path d="M944,557.7c0-0.7,0.2-1.5,0.7-1.9c0.5-0.5,1.2-0.7,1.9-0.7c0.7,0,1.5,0.2,1.9,0.7c0.5,0.5,0.7,1.2,0.7,1.9
			c0,0.7-0.2,1.5-0.7,1.9c-0.5,0.5-1.2,0.7-1.9,0.7c-0.7,0-1.5-0.2-1.9-0.7C944.5,559.2,944,558.5,944,557.7z M948.4,629.9h-2.9V575
			h2.7v54.9H948.4z"/>
		<path d="M969.1,587.6c1.7-4.4,4.4-7.5,8-10.2c3.4-2.4,7.3-3.6,11.7-3.6c5.8,0,10.2,1.7,13.1,5.1c2.9,3.4,4.4,8.3,4.4,15.1v36h-2.7
			v-36c0-5.8-1.2-10.2-3.6-13.1c-2.4-2.9-6.1-4.1-11.2-4.1c-4.9,0-8.7,1.7-12.4,5.1c-3.4,3.4-5.8,7.8-7,13.1v35.2h-2.7V575h2.7v12.6
			H969.1z"/>
		<path d="M1020.6,601.7c0-8.7,1.9-15.5,5.6-20.7c3.6-4.9,8.7-7.3,15.3-7.3c4.1,0,7.8,1,10.9,2.9c3.2,1.9,5.8,4.6,7.8,8.3v-10h2.7
			v53.9c0,7.3-1.9,12.9-5.6,17c-3.6,4.1-8.7,6.1-15.3,6.1c-3.6,0-7-0.7-10.2-2.4c-3.2-1.7-5.6-3.9-7.8-6.8l1.9-1.9
			c2.2,2.7,4.4,4.9,7,6.3c2.4,1.5,5.6,2.2,9,2.2c5.6,0,10-1.7,13.1-5.1s4.9-8.3,4.9-14.6v-8.5c-1.9,3.2-4.4,5.6-7.8,7.3
			c-3.2,1.7-6.8,2.4-10.9,2.4c-6.3,0-11.4-2.4-15.1-7.5c-3.6-5.1-5.6-11.9-5.6-20.7L1020.6,601.7L1020.6,601.7z M1023.5,602.9
			c0,7.8,1.5,14.1,4.6,18.5c3.2,4.4,7.5,6.8,13.1,6.8c4.6,0,8.5-1,11.9-3.2c3.2-2.2,5.6-5.1,6.8-9v-25c-2.9-9.5-9.2-14.3-18.7-14.3
			c-5.6,0-10,2.2-13.1,6.6C1024.9,587.6,1023.5,594.2,1023.5,602.9z"/>
		<path class="st1" d="M1077.9,622.6c0-2.4,0.7-4.1,2.4-5.6c1.5-1.5,3.6-2.2,5.8-2.2c2.4,0,4.4,0.7,6.1,2.2c1.5,1.5,2.4,3.4,2.4,5.6
			c0,2.2-0.7,4.1-2.4,5.6c-1.5,1.5-3.6,2.2-6.1,2.2c-2.4,0-4.4-0.7-5.8-2.2C1078.6,626.7,1077.9,625,1077.9,622.6z"/>
		<path d="M1120.9,575l0.5,6.3c3.9-4.9,9.2-7.3,15.8-7.3c5.8,0,10.2,1.7,13.1,5.1c2.9,3.4,4.4,8.5,4.4,15.3v35.5h-14.6v-35.2
			c0-3.2-0.7-5.3-1.9-6.8c-1.5-1.5-3.6-2.2-6.8-2.2c-4.1,0-7.3,1.7-9.2,5.3v38.6h-14.6V575H1120.9z"/>
		<path d="M1181.2,629.9h-14.8v-78h14.8V629.9z"/>
		<path class="st1" d="M226.6,555.5c0-2.2,0.7-4.1,2.2-5.3c1.5-1.2,3.4-2.2,6.1-2.2c2.4,0,4.6,0.7,6.1,2.2c1.5,1.5,2.2,3.2,2.2,5.3
			s-0.7,4.1-2.2,5.6c-1.5,1.5-3.4,2.2-6.1,2.2c-2.4,0-4.4-0.7-6.1-2.2C227.3,559.4,226.6,557.7,226.6,555.5z"/>
	</g>
</g>
</svg>
