<?xml version="1.0" encoding="utf-8"?>
<!-- Generator: Adobe Illustrator 22.1.0, SVG Export Plug-In . SVG Version: 6.00 Build 0)  -->
<svg version="1.1" id="Layer_1" xmlns="http://www.w3.org/2000/svg" xmlns:xlink="http://www.w3.org/1999/xlink" x="0px" y="0px"
	 viewBox="0 0 256 256" style="enable-background:new 0 0 256 256;" xml:space="preserve">
<style type="text/css">
	.st0{fill:#FCD404;}
	.st1{fill:none;}
</style>
<g>
	<circle class="st0" cx="124.5" cy="127.9" r="66.5"/>
	<polygon class="st0" points="124.5,21.5 139.6,47.8 124.5,47.8 109.3,47.8 	"/>
	<polygon class="st0" points="18.3,127.9 44.6,112.7 44.6,127.9 44.6,143 	"/>
	<polygon class="st0" points="49.6,52.8 78.9,60.6 68.2,71.3 57.5,82 	"/>
	<path class="st1" d="M44.6,127.9"/>
	<polygon class="st0" points="124.5,234 109.3,207.7 124.5,207.7 139.6,207.7 	"/>
	<polygon class="st0" points="49.4,202.7 57.2,173.5 68,184.2 78.7,194.9 	"/>
	<polygon class="st0" points="230.6,127.6 204.4,142.8 204.4,127.6 204.4,112.5 	"/>
	<polygon class="st0" points="199.4,202.7 170.1,194.9 180.8,184.2 191.5,173.5 	"/>
	<polygon class="st0" points="199.6,52.8 191.7,82 181,71.3 170.3,60.6 	"/>
</g>
</svg>
