<?xml version="1.0" encoding="utf-8"?>
<!-- Generator: Adobe Illustrator 22.1.0, SVG Export Plug-In . SVG Version: 6.00 Build 0)  -->
<svg version="1.1" id="Layer_1" xmlns="http://www.w3.org/2000/svg" xmlns:xlink="http://www.w3.org/1999/xlink" x="0px" y="0px"
	 viewBox="0 0 512 64" style="enable-background:new 0 0 512 64;" xml:space="preserve">
<style type="text/css">
	.st0{fill:#FCD404;}
</style>
<g>
	<path d="M22.3,22.2l0.2,2.5c1.6-2,3.8-2.9,6.5-2.9c2.9,0,4.9,1.1,6,3.4c1.6-2.3,3.9-3.4,6.8-3.4c2.5,0,4.3,0.7,5.5,2.1
		c1.2,1.4,1.8,3.6,1.8,6.4v14.4H43V30.4c0-1.3-0.3-2.2-0.8-2.8c-0.5-0.6-1.4-0.9-2.7-0.9c-1.8,0-3.1,0.9-3.8,2.6l0,15.5h-6V30.4
		c0-1.3-0.3-2.3-0.8-2.8c-0.5-0.6-1.4-0.9-2.6-0.9c-1.7,0-3,0.7-3.7,2.1v16h-6V22.2H22.3z"/>
	<path d="M52.8,33.3c0-2.2,0.4-4.2,1.3-6c0.9-1.8,2.1-3.1,3.7-4.1c1.6-1,3.5-1.4,5.7-1.4c3.1,0,5.5,0.9,7.5,2.8
		c1.9,1.9,3,4.4,3.2,7.6l0,1.5c0,3.5-1,6.3-2.9,8.4c-1.9,2.1-4.5,3.1-7.8,3.1c-3.3,0-5.9-1-7.8-3.1c-1.9-2.1-2.9-4.9-2.9-8.5V33.3z
		 M58.8,33.7c0,2.1,0.4,3.8,1.2,4.9c0.8,1.1,2,1.7,3.5,1.7c1.5,0,2.6-0.6,3.4-1.7c0.8-1.1,1.2-2.9,1.2-5.4c0-2.1-0.4-3.7-1.2-4.9
		c-0.8-1.2-2-1.7-3.5-1.7c-1.5,0-2.6,0.6-3.4,1.7C59.2,29.5,58.8,31.3,58.8,33.7z"/>
	<path d="M77,33.3c0-2.2,0.4-4.2,1.3-6c0.9-1.8,2.1-3.1,3.7-4.1c1.6-1,3.5-1.4,5.7-1.4c3.1,0,5.5,0.9,7.5,2.8c1.9,1.9,3,4.4,3.2,7.6
		l0,1.5c0,3.5-1,6.3-2.9,8.4c-1.9,2.1-4.5,3.1-7.8,3.1s-5.9-1-7.8-3.1C77.9,40,77,37.1,77,33.5V33.3z M83,33.7
		c0,2.1,0.4,3.8,1.2,4.9c0.8,1.1,2,1.7,3.5,1.7c1.5,0,2.6-0.6,3.4-1.7c0.8-1.1,1.2-2.9,1.2-5.4c0-2.1-0.4-3.7-1.2-4.9
		c-0.8-1.2-2-1.7-3.5-1.7c-1.5,0-2.6,0.6-3.4,1.7C83.4,29.5,83,31.3,83,33.7z"/>
	<path d="M108.5,44.8h-6.1V22.2h6.1V44.8z"/>
	<path d="M133.1,36.6l3-14.4h5.8l-5.8,22.6h-5.1l-4.3-14.2l-4.3,14.2h-5l-5.8-22.6h5.8l2.9,14.4l4.1-14.4h4.4L133.1,36.6z"/>
	<path d="M155.3,45.2c-3.3,0-6-1-8.1-3.1c-2.1-2-3.1-4.7-3.1-8.1v-0.6c0-2.3,0.4-4.3,1.3-6.1c0.9-1.8,2.1-3.2,3.7-4.1
		c1.6-1,3.4-1.5,5.5-1.5c3.1,0,5.5,1,7.3,2.9c1.8,2,2.7,4.7,2.7,8.3v2.5h-14.4c0.2,1.5,0.8,2.7,1.8,3.6c1,0.9,2.2,1.3,3.7,1.3
		c2.3,0,4.1-0.8,5.5-2.5l3,3.3c-0.9,1.3-2.1,2.3-3.7,3C158.9,44.8,157.2,45.2,155.3,45.2z M154.6,26.6c-1.2,0-2.2,0.4-2.9,1.2
		c-0.7,0.8-1.2,2-1.4,3.5h8.4v-0.5c0-1.3-0.4-2.4-1.1-3.1C156.9,27,155.9,26.6,154.6,26.6z"/>
	<path d="M178.5,45.2c-3.3,0-6-1-8.1-3.1c-2.1-2-3.1-4.7-3.1-8.1v-0.6c0-2.3,0.4-4.3,1.3-6.1c0.9-1.8,2.1-3.2,3.7-4.1
		c1.6-1,3.4-1.5,5.5-1.5c3.1,0,5.5,1,7.3,2.9c1.8,2,2.7,4.7,2.7,8.3v2.5h-14.4c0.2,1.5,0.8,2.7,1.8,3.6c1,0.9,2.2,1.3,3.7,1.3
		c2.3,0,4.1-0.8,5.5-2.5l3,3.3c-0.9,1.3-2.1,2.3-3.7,3C182.1,44.8,180.4,45.2,178.5,45.2z M177.8,26.6c-1.2,0-2.2,0.4-2.9,1.2
		c-0.7,0.8-1.2,2-1.4,3.5h8.4v-0.5c0-1.3-0.4-2.4-1.1-3.1C180.1,27,179.1,26.6,177.8,26.6z"/>
	<path d="M203.9,27.8c-0.8-0.1-1.5-0.2-2.2-0.2c-2.3,0-3.8,0.8-4.5,2.3v14.8h-6V22.2h5.7l0.2,2.7c1.2-2.1,2.9-3.1,5-3.1
		c0.7,0,1.3,0.1,1.9,0.3L203.9,27.8z"/>
	<path d="M219.1,38.5c0-0.7-0.4-1.3-1.1-1.7c-0.7-0.4-1.9-0.8-3.5-1.1c-5.4-1.1-8.1-3.4-8.1-6.9c0-2,0.8-3.7,2.5-5
		c1.7-1.3,3.8-2,6.5-2c2.9,0,5.2,0.7,6.9,2c1.7,1.4,2.6,3.1,2.6,5.3h-6c0-0.9-0.3-1.6-0.8-2.1c-0.6-0.6-1.4-0.8-2.6-0.8
		c-1,0-1.8,0.2-2.4,0.7c-0.6,0.5-0.8,1-0.8,1.8c0,0.7,0.3,1.2,1,1.6c0.6,0.4,1.7,0.8,3.2,1.1c1.5,0.3,2.8,0.6,3.8,1
		c3.2,1.2,4.8,3.2,4.8,6.1c0,2.1-0.9,3.7-2.7,5c-1.8,1.3-4.1,1.9-6.9,1.9c-1.9,0-3.6-0.3-5-1c-1.5-0.7-2.6-1.6-3.5-2.8
		c-0.8-1.2-1.3-2.4-1.3-3.8h5.7c0.1,1.1,0.5,1.9,1.2,2.5c0.7,0.6,1.7,0.9,3,0.9c1.2,0,2-0.2,2.6-0.7
		C218.8,39.8,219.1,39.2,219.1,38.5z"/>
	<path d="M238.9,43l8.1-20.8h1.2l-8.8,22.6h-1.1l-8.8-22.6h1.2L238.9,43z"/>
	<path d="M250.7,33c0-2.2,0.4-4.1,1.2-5.8c0.8-1.7,2-3.1,3.5-4c1.5-1,3.2-1.4,5.1-1.4c1.9,0,3.6,0.5,5.1,1.4c1.5,0.9,2.7,2.3,3.5,4
		c0.8,1.7,1.3,3.6,1.3,5.8v1c0,2.2-0.4,4.1-1.2,5.8c-0.8,1.7-2,3.1-3.5,4c-1.5,1-3.2,1.4-5.1,1.4c-1.9,0-3.6-0.5-5.1-1.4
		c-1.5-0.9-2.7-2.3-3.5-4c-0.8-1.7-1.3-3.6-1.3-5.8V33z M251.8,33.9c0,1.9,0.4,3.6,1.1,5.2c0.7,1.6,1.8,2.8,3.1,3.7
		c1.3,0.9,2.9,1.3,4.6,1.3c2.6,0,4.7-1,6.3-2.9c1.6-1.9,2.4-4.4,2.4-7.5V33c0-1.9-0.4-3.6-1.1-5.1c-0.8-1.6-1.8-2.8-3.1-3.7
		c-1.3-0.9-2.8-1.3-4.5-1.3c-2.6,0-4.7,1-6.3,2.9c-1.6,2-2.4,4.4-2.4,7.4V33.9z"/>
	<path d="M274.2,33c0-2.2,0.4-4.1,1.2-5.8c0.8-1.7,2-3.1,3.5-4c1.5-1,3.2-1.4,5.1-1.4c1.9,0,3.6,0.5,5.1,1.4c1.5,0.9,2.7,2.3,3.5,4
		c0.8,1.7,1.3,3.6,1.3,5.8v1c0,2.2-0.4,4.1-1.2,5.8c-0.8,1.7-2,3.1-3.5,4c-1.5,1-3.2,1.4-5.1,1.4c-1.9,0-3.6-0.5-5.1-1.4
		c-1.5-0.9-2.7-2.3-3.5-4c-0.8-1.7-1.3-3.6-1.3-5.8V33z M275.3,33.9c0,1.9,0.4,3.6,1.1,5.2c0.7,1.6,1.8,2.8,3.1,3.7
		c1.3,0.9,2.9,1.3,4.6,1.3c2.6,0,4.7-1,6.3-2.9c1.6-1.9,2.4-4.4,2.4-7.5V33c0-1.9-0.4-3.6-1.1-5.1c-0.8-1.6-1.8-2.8-3.1-3.7
		c-1.3-0.9-2.8-1.3-4.5-1.3c-2.6,0-4.7,1-6.3,2.9c-1.6,2-2.4,4.4-2.4,7.4V33.9z"/>
	<path d="M309.5,23l-1.5-0.1c-1.9,0-3.5,0.6-4.8,1.9c-1.3,1.2-2.1,3-2.6,5.2v14.8h-1.1V22.2h1.1v4.7c0.6-1.6,1.5-2.8,2.8-3.7
		c1.2-0.9,2.8-1.4,4.6-1.4c0.7,0,1.2,0.1,1.6,0.2L309.5,23z"/>
	<path d="M327.8,39.2c0-2.7-2.3-4.6-7-5.6c-2.8-0.6-4.8-1.4-5.9-2.3c-1.1-0.9-1.7-2.2-1.7-3.9c0-1.7,0.7-3,2.1-4.1
		c1.4-1.1,3.2-1.6,5.5-1.6c2.4,0,4.4,0.6,5.9,1.7c1.5,1.2,2.2,2.7,2.2,4.7h-1.1c0-1.5-0.6-2.8-1.9-3.8c-1.3-1-3-1.5-5-1.5
		c-2,0-3.5,0.4-4.7,1.3c-1.2,0.9-1.7,1.9-1.7,3.2c0,1,0.2,1.8,0.6,2.4c0.4,0.6,1.1,1.1,2.1,1.6c1,0.5,2.4,0.9,4.3,1.3
		c1.9,0.4,3.3,0.9,4.4,1.5c1.1,0.6,1.9,1.3,2.4,2.1c0.5,0.8,0.7,1.8,0.7,2.9c0,1.8-0.7,3.2-2.2,4.3c-1.5,1.1-3.4,1.6-5.7,1.6
		c-2.5,0-4.6-0.6-6.1-1.7c-1.6-1.1-2.3-2.6-2.3-4.4h1.1c0.1,1.6,0.8,2.8,2.1,3.7c1.3,0.9,3,1.3,5.2,1.3c2,0,3.7-0.5,4.9-1.4
		C327.1,41.7,327.8,40.6,327.8,39.2z"/>
	<path d="M352.4,33.7c0,3.5-0.8,6.3-2.3,8.4c-1.5,2.1-3.6,3.1-6.2,3.1c-1.7,0-3.2-0.3-4.6-1c-1.3-0.7-2.4-1.7-3.1-2.9v12.2h-1.1
		V22.2h1.1v4c0.8-1.4,1.8-2.5,3.2-3.3c1.3-0.8,2.8-1.1,4.5-1.1c2.6,0,4.7,1,6.3,3c1.5,2,2.3,4.9,2.3,8.5V33.7z M351.2,33.2
		c0-3.2-0.6-5.8-1.9-7.6c-1.3-1.8-3.1-2.7-5.4-2.7c-1.9,0-3.5,0.5-4.8,1.5c-1.3,1-2.3,2.4-2.9,4.2v10.6c0.6,1.6,1.5,2.8,2.9,3.6
		c1.3,0.9,3,1.3,4.9,1.3c2.3,0,4.1-0.9,5.4-2.8C350.6,39.5,351.2,36.8,351.2,33.2z"/>
	<path d="M366.7,45.2c-1.8,0-3.5-0.5-5-1.5c-1.5-1-2.7-2.3-3.6-4c-0.9-1.7-1.3-3.6-1.3-5.7V33c0-2.1,0.4-4,1.3-5.7
		c0.8-1.7,2-3.1,3.4-4.1c1.5-1,3.1-1.5,4.8-1.5c2.5,0,4.6,0.9,6.2,2.7c1.6,1.8,2.4,4.2,2.4,7.1v1.2h-17V34c0,1.8,0.4,3.5,1.2,5.1
		c0.8,1.6,1.8,2.8,3.2,3.7s2.8,1.3,4.4,1.3c1.5,0,2.8-0.3,3.9-0.8s2-1.3,2.8-2.3l0.8,0.6C372.5,44,370,45.2,366.7,45.2z M366.3,22.9
		c-2.2,0-4.1,0.8-5.6,2.5c-1.5,1.6-2.4,3.7-2.7,6.3h15.8v-0.3c0-1.5-0.3-3-1-4.3c-0.6-1.3-1.5-2.3-2.7-3.1
		C368.9,23.2,367.7,22.9,366.3,22.9z"/>
	<path d="M381.5,44.8h-1.1V12.7h1.1V44.8z"/>
	<path d="M390.3,44.8h-1.1V12.7h1.1V44.8z"/>
	<path d="M397.4,15.1c0-0.3,0.1-0.6,0.3-0.8c0.2-0.2,0.5-0.3,0.8-0.3c0.3,0,0.6,0.1,0.8,0.3c0.2,0.2,0.3,0.5,0.3,0.8
		c0,0.3-0.1,0.6-0.3,0.8c-0.2,0.2-0.5,0.3-0.8,0.3c-0.3,0-0.6-0.1-0.8-0.3C397.6,15.7,397.4,15.4,397.4,15.1z M399.2,44.8H398V22.2
		h1.1V44.8z"/>
	<path d="M407.7,27.4c0.7-1.8,1.8-3.1,3.3-4.2c1.4-1,3-1.5,4.8-1.5c2.4,0,4.2,0.7,5.4,2.1c1.2,1.4,1.8,3.4,1.8,6.2v14.8h-1.1V30
		c0-2.4-0.5-4.2-1.5-5.4c-1-1.2-2.5-1.7-4.6-1.7c-2,0-3.6,0.7-5.1,2.1c-1.4,1.4-2.4,3.2-2.9,5.4v14.5h-1.1V22.2h1.1V27.4z"/>
	<path d="M428.9,33.2c0-3.6,0.8-6.4,2.3-8.5c1.5-2,3.6-3,6.3-3c1.7,0,3.2,0.4,4.5,1.2c1.3,0.8,2.4,1.9,3.2,3.4v-4.1h1.1v22.2
		c0,3-0.8,5.3-2.3,7c-1.5,1.7-3.6,2.5-6.3,2.5c-1.5,0-2.9-0.3-4.2-1c-1.3-0.7-2.3-1.6-3.2-2.8l0.8-0.8c0.9,1.1,1.8,2,2.9,2.6
		c1,0.6,2.3,0.9,3.7,0.9c2.3,0,4.1-0.7,5.4-2.1c1.3-1.4,2-3.4,2-6v-3.5c-0.8,1.3-1.8,2.3-3.2,3c-1.3,0.7-2.8,1-4.5,1
		c-2.6,0-4.7-1-6.2-3.1c-1.5-2.1-2.3-4.9-2.3-8.5V33.2z M430.1,33.7c0,3.2,0.6,5.8,1.9,7.6c1.3,1.8,3.1,2.8,5.4,2.8
		c1.9,0,3.5-0.4,4.9-1.3c1.3-0.9,2.3-2.1,2.8-3.7V28.8c-1.2-3.9-3.8-5.9-7.7-5.9c-2.3,0-4.1,0.9-5.4,2.7
		C430.7,27.4,430.1,30.1,430.1,33.7z"/>
	<path class="st0" d="M452.5,41.8c0-1,0.3-1.7,1-2.3c0.6-0.6,1.5-0.9,2.4-0.9c1,0,1.8,0.3,2.5,0.9c0.6,0.6,1,1.4,1,2.3
		c0,0.9-0.3,1.7-1,2.3c-0.6,0.6-1.5,0.9-2.5,0.9c-1,0-1.8-0.3-2.4-0.9C452.8,43.5,452.5,42.8,452.5,41.8z"/>
	<path d="M470.2,22.2l0.2,2.6c1.6-2,3.8-3,6.5-3c2.4,0,4.2,0.7,5.4,2.1c1.2,1.4,1.8,3.5,1.8,6.3v14.6h-6V30.3c0-1.3-0.3-2.2-0.8-2.8
		c-0.6-0.6-1.5-0.9-2.8-0.9c-1.7,0-3,0.7-3.8,2.2v15.9h-6V22.2H470.2z"/>
	<path d="M495,44.8h-6.1V12.7h6.1V44.8z"/>
	<path class="st0" d="M102.1,14.2c0-0.9,0.3-1.7,0.9-2.2s1.4-0.9,2.5-0.9c1,0,1.9,0.3,2.5,0.9c0.6,0.6,0.9,1.3,0.9,2.2
		c0,0.9-0.3,1.7-0.9,2.3c-0.6,0.6-1.4,0.9-2.5,0.9c-1,0-1.8-0.3-2.5-0.9C102.4,15.8,102.1,15.1,102.1,14.2z"/>
</g>
</svg>
